<svg xmlns="http://www.w3.org/2000/svg" viewBox="0 0 200 200">
  <rect width="200" height="200" rx="44" fill="#000000"/>
  <rect x="38" y="38" width="28" height="120" rx="6" fill="#ffffff"/>
  <rect x="38" y="130" width="90" height="28" rx="6" fill="#ffffff"/>
  <rect x="94" y="38" width="10" height="10" rx="2" fill="#0071e3" opacity="0.3"/>
  <rect x="108" y="38" width="10" height="10" rx="2" fill="#0071e3" opacity="0.6"/>
  <rect x="122" y="38" width="10" height="10" rx="2" fill="#0071e3" opacity="1"/>
  <rect x="136" y="38" width="10" height="10" rx="2" fill="#0071e3" opacity="0.5"/>
  <rect x="150" y="38" width="10" height="10" rx="2" fill="#0071e3" opacity="0.2"/>
  <rect x="94" y="52" width="10" height="10" rx="2" fill="#0071e3" opacity="0.5"/>
  <rect x="108" y="52" width="10" height="10" rx="2" fill="#0071e3" opacity="1"/>
  <rect x="122" y="52" width="10" height="10" rx="2" fill="#0071e3" opacity="0.4"/>
  <rect x="136" y="52" width="10" height="10" rx="2" fill="#0071e3" opacity="0.8"/>
  <rect x="150" y="52" width="10" height="10" rx="2" fill="#0071e3" opacity="1"/>
  <rect x="94" y="66" width="10" height="10" rx="2" fill="#0071e3" opacity="0.2"/>
  <rect x="108" y="66" width="10" height="10" rx="2" fill="#0071e3" opacity="0.7"/>
  <rect x="122" y="66" width="10" height="10" rx="2" fill="#0071e3" opacity="1"/>
  <rect x="136" y="66" width="10" height="10" rx="2" fill="#0071e3" opacity="0.3"/>
  <rect x="150" y="66" width="10" height="10" rx="2" fill="#0071e3" opacity="0.6"/>
  <rect x="94" y="80" width="10" height="10" rx="2" fill="#0071e3" opacity="0.8"/>
  <rect x="108" y="80" width="10" height="10" rx="2" fill="#0071e3" opacity="0.3"/>
  <rect x="122" y="80" width="10" height="10" rx="2" fill="#0071e3" opacity="0.5"/>
  <rect x="136" y="80" width="10" height="10" rx="2" fill="#0071e3" opacity="1"/>
  <rect x="150" y="80" width="10" height="10" rx="2" fill="#0071e3" opacity="0.4"/>
  <rect x="94" y="94" width="10" height="10" rx="2" fill="#0071e3" opacity="0.4"/>
  <rect x="108" y="94" width="10" height="10" rx="2" fill="#0071e3" opacity="1"/>
  <rect x="122" y="94" width="10" height="10" rx="2" fill="#0071e3" opacity="0.7"/>
  <rect x="136" y="94" width="10" height="10" rx="2" fill="#0071e3" opacity="0.2"/>
  <rect x="150" y="94" width="10" height="10" rx="2" fill="#0071e3" opacity="0.9"/>
</svg>
